<svg width="11" height="10" viewBox="0 0 11 10" fill="none" xmlns="http://www.w3.org/2000/svg">
<path d="M6.53998 1.21C6.53998 1.21 8.04198 2.715 9.79498 4.469C9.94098 4.616 10.014 4.808 10.014 5C10.014 5.192 9.94098 5.38299 9.79498 5.52999C8.04198 7.28399 6.54098 8.788 6.54098 8.788C6.39598 8.933 6.20498 9.00499 6.01398 9.00499C5.82298 9.00399 5.63098 8.931 5.48398 8.784C5.19098 8.491 5.18898 8.018 5.47998 7.727L7.45798 5.75H0.763977C0.349977 5.75 0.0139771 5.414 0.0139771 5C0.0139771 4.586 0.349977 4.25 0.763977 4.25H7.45798L5.47898 2.271C5.18998 1.982 5.19298 1.509 5.48498 1.217C5.63198 1.07 5.82398 0.995995 6.01598 0.994995C6.20598 0.994995 6.39598 1.066 6.53998 1.21Z" fill="white"/>
</svg>
