<svg width="10" height="8" viewBox="0 0 10 8" fill="none" xmlns="http://www.w3.org/2000/svg">
<path d="M10 7.25C10 6.836 9.664 6.5 9.25 6.5H0.75C0.336 6.5 0 6.836 0 7.25C0 7.664 0.336 8 0.75 8H9.25C9.664 8 10 7.664 10 7.25ZM10 4.002C10 3.588 9.664 3.252 9.25 3.252H0.75C0.336 3.252 0 3.588 0 4.002C0 4.416 0.336 4.752 0.75 4.752H9.25C9.664 4.752 10 4.416 10 4.002ZM10 0.75C10 0.336 9.664 0 9.25 0H0.75C0.336 0 0 0.336 0 0.75C0 1.164 0.336 1.5 0.75 1.5H9.25C9.664 1.5 10 1.164 10 0.75Z" fill="white"/>
</svg>
