<?xml version="1.0" standalone="no"?>
<!DOCTYPE svg PUBLIC "-//W3C//DTD SVG 20010904//EN"
 "http://www.w3.org/TR/2001/REC-SVG-20010904/DTD/svg10.dtd">
<svg version="1.0" xmlns="http://www.w3.org/2000/svg"
 width="512.000000pt" height="512.000000pt" viewBox="0 0 512.000000 512.000000"
 preserveAspectRatio="xMidYMid meet">

<g transform="translate(0.000000,512.000000) scale(0.100000,-0.100000)"
fill="#d9d9d9" stroke="none">
<path d="M1809 4900 c-283 -43 -590 -181 -1150 -516 -289 -173 -338 -208 -409
-297 -65 -80 -162 -277 -195 -392 -107 -383 -54 -703 174 -1045 72 -107 90
-152 102 -259 6 -47 17 -107 25 -133 21 -64 90 -139 156 -169 98 -44 236 -27
310 38 15 13 17 -14 21 -389 4 -371 6 -409 25 -486 74 -284 248 -498 506 -621
55 -27 128 -56 161 -65 79 -21 227 -36 288 -29 l48 6 77 -75 c124 -120 240
-187 397 -229 110 -29 308 -32 415 -5 169 43 300 116 420 234 74 73 75 74 120
69 58 -7 209 8 284 28 324 85 570 332 669 670 19 65 21 102 25 483 2 227 6
412 10 410 4 -2 32 -16 62 -32 105 -57 252 -36 338 47 55 52 83 119 98 233 16
125 31 163 112 286 160 245 232 482 219 717 -16 271 -106 528 -247 705 -78 99
-110 122 -405 298 -512 306 -752 420 -1040 496 l-100 26 -730 2 c-401 1 -755
-2 -786 -6z m1500 -305 c227 -43 511 -177 1001 -470 299 -179 336 -212 407
-362 70 -147 95 -261 97 -428 1 -133 -1 -145 -31 -232 -41 -117 -81 -196 -153
-303 -88 -130 -140 -270 -140 -382 0 -30 -4 -48 -12 -48 -23 0 -92 86 -123
155 -58 127 -72 211 -85 515 -14 347 -57 535 -164 717 -42 72 -127 168 -167
188 -76 40 -169 5 -203 -77 -26 -64 -17 -104 44 -175 67 -78 115 -171 144
-283 48 -179 51 -234 51 -1180 l0 -885 -24 -74 c-65 -197 -243 -363 -446 -417
-81 -21 -233 -20 -315 1 -150 38 -305 153 -382 280 -56 94 -56 96 3 135 89 57
182 206 216 344 14 59 15 79 5 138 -27 157 -117 251 -283 295 -80 21 -281 23
-359 4 -127 -31 -228 -109 -272 -209 -33 -72 -36 -190 -8 -272 44 -132 123
-244 211 -304 l49 -33 -32 -64 c-48 -94 -172 -215 -268 -262 -102 -50 -178
-68 -290 -69 -286 -2 -520 174 -616 462 -17 51 -19 110 -22 790 -5 1012 7
1217 82 1415 30 80 61 129 117 190 48 52 62 93 50 148 -18 76 -97 127 -176
113 -98 -19 -239 -220 -299 -428 -42 -144 -56 -251 -66 -488 -16 -365 -51
-507 -155 -628 -49 -57 -65 -55 -65 6 0 112 -60 269 -152 402 -101 145 -168
322 -176 466 -12 224 73 487 204 633 35 39 100 83 277 189 318 190 389 230
578 321 185 89 305 134 429 161 77 17 145 19 761 19 571 1 690 -1 758 -14z
m-658 -2835 c30 -6 62 -19 73 -29 17 -18 18 -24 7 -63 -17 -61 -65 -135 -104
-158 -69 -43 -139 -16 -193 72 -21 35 -39 78 -42 103 -4 38 -1 45 19 56 51 28
152 36 240 19z m28 -943 c51 -53 157 -135 210 -162 l34 -17 -24 -19 c-75 -57
-239 -109 -341 -109 -99 1 -263 54 -326 106 l-24 20 81 52 c85 56 188 152 241
226 l32 45 35 -47 c20 -26 56 -69 82 -95z"/>
<path d="M1700 2632 c-47 -25 -83 -93 -76 -146 8 -66 62 -122 128 -132 54 -9
123 27 148 77 68 133 -68 270 -200 201z"/>
<path d="M3260 2631 c-133 -70 -81 -276 70 -276 85 0 155 74 147 156 -10 111
-120 172 -217 120z"/>
</g>
</svg>
